<?xml version="1.0" encoding="UTF-8" standalone="no"?>
<!-- Created with Inkscape (http://www.inkscape.org/) -->

<svg
   xmlns:dc="http://purl.org/dc/elements/1.1/"
   xmlns:cc="http://creativecommons.org/ns#"
   xmlns:rdf="http://www.w3.org/1999/02/22-rdf-syntax-ns#"
   xmlns:svg="http://www.w3.org/2000/svg"
   xmlns="http://www.w3.org/2000/svg"
   xmlns:xlink="http://www.w3.org/1999/xlink"
   xmlns:sodipodi="http://sodipodi.sourceforge.net/DTD/sodipodi-0.dtd"
   xmlns:inkscape="http://www.inkscape.org/namespaces/inkscape"
   width="765"
   height="990"
   id="svg2"
   version="1.1"
   inkscape:version="0.91 r"
   sodipodi:docname="blank.svg">
  <defs
     id="defs4" />
  <sodipodi:namedview
     id="base"
     pagecolor="#ffffff"
     bordercolor="#666666"
     borderopacity="1.0"
     inkscape:pageopacity="0.0"
     inkscape:pageshadow="2"
     inkscape:zoom="0.7"
     inkscape:cx="-17.498247"
     inkscape:cy="571.29483"
     inkscape:document-units="px"
     inkscape:current-layer="layer1"
     showgrid="false"
     inkscape:window-width="1920"
     inkscape:window-height="1173"
     inkscape:window-x="1600"
     inkscape:window-y="0"
     inkscape:window-maximized="1" />
  <metadata
     id="metadata7">
    <rdf:RDF>
      <cc:Work
         rdf:about="">
        <dc:format>image/svg+xml</dc:format>
        <dc:type
           rdf:resource="http://purl.org/dc/dcmitype/StillImage" />
        <dc:title />
      </cc:Work>
    </rdf:RDF>
  </metadata>
  <g
     inkscape:label="Layer 1"
     inkscape:groupmode="layer"
     id="layer1"
     transform="translate(0,-62.362183)">
    <g
       id="g3527">
      <g
         transform="translate(350.49739,184.6479)"
         id="g3496">
        <path
           style="fill:#dadee0"
           inkscape:connector-curvature="0"
           d="m 60.861,2 c 1.797,13.431 1.51,24.233 -1.166,31.132 L 34.889,14.677 C 39.816,9.584 49.818,3.459 60.861,2 Z"
           id="path3444" />
        <path
           style="fill:#f7a4a4"
           inkscape:connector-curvature="0"
           d="M 57.738,32.18 47.484,18.927 c 0,0 1.938,-7.285 11.615,-12.438 C 62,18.145 57.738,32.18 57.738,32.18"
           id="path3446" />
        <path
           style="fill:#f78d8d"
           inkscape:connector-curvature="0"
           d="m 53.836,29.16 -6.352,-8.209 c 0,0 2.574,-5.02 8.568,-8.216 -3.497,7.563 -2.216,16.425 -2.216,16.425"
           id="path3448" />
        <path
           style="fill:#dadee0"
           inkscape:connector-curvature="0"
           d="M 3.139,2 C 1.342,15.431 1.629,26.233 4.305,33.132 L 29.114,14.677 C 24.186,9.584 14.182,3.459 3.139,2 Z"
           id="path3450" />
        <path
           style="fill:#f7a4a4"
           inkscape:connector-curvature="0"
           d="M 6.262,32.177 16.518,18.924 c 0,0 -1.939,-7.285 -11.617,-12.438 C 2,18.142 6.262,32.177 6.262,32.177 Z"
           id="path3452" />
        <path
           style="fill:#f78d8d"
           inkscape:connector-curvature="0"
           d="m 10.166,29.16 6.352,-8.209 c 0,0 -2.574,-5.02 -8.568,-8.216 3.497,7.563 2.216,16.425 2.216,16.425"
           id="path3454" />
        <path
           style="fill:#dadee0"
           inkscape:connector-curvature="0"
           d="m 58.2,50.754 c 0.846,-0.881 1.416,-1.633 1.662,-2.162 1.629,-2.643 2.143,-5.342 2.143,-5.342 l -2,0.424 c 0,0 2.318,-2.463 1.691,-7.793 l -1.945,2.102 c 0,0 1.945,-5.41 0.254,-10.4 l -2.152,1.588 c 0,0 0.654,-2.031 0.053,-3.422 l -0.932,0.729 c 0,0 1.689,-4.665 0.154,-6.625 -0.855,2.827 -1.871,2.784 -1.871,2.784 0,0 1.242,-2.116 0.273,-3 -0.986,1.594 -1.807,0.558 -1.768,0.079 0.055,-0.637 -0.193,-1.534 2.703,-1.957 -2.314,-1.414 -5.05,-0.43 -5.05,-0.43 0,0 0.098,-1.489 2.123,-1.43 -1.871,-1.593 -4.48,-0.648 -4.48,-0.648 l 0.006,0.017 c -4.111,-3.11 -9.645,-4.902 -17.05,-4.902 -7.405,0 -12.941,1.792 -17.05,4.902 l 0.006,-0.017 c 0,0 -2.609,-0.944 -4.48,0.648 2.027,-0.06 2.125,1.43 2.125,1.43 0,0 -2.742,-0.984 -5.057,0.43 2.898,0.423 2.65,1.32 2.703,1.957 0.039,0.479 -0.779,1.515 -1.768,-0.079 -0.967,0.887 0.275,3 0.275,3 0,0 -1.016,0.043 -1.871,-2.784 -1.537,1.96 0.154,6.625 0.154,6.625 L 6.119,25.749 c -0.602,1.391 0.053,3.422 0.053,3.422 L 4.018,27.583 c -1.691,4.99 0.254,10.4 0.254,10.4 L 2.327,35.881 c -0.625,5.33 1.691,7.793 1.691,7.793 l -2,-0.424 c 0,0 0.514,2.694 2.141,5.339 0.25,0.534 0.834,1.304 1.699,2.202 0.023,0.024 0.043,0.049 0.066,0.072 l 0,-0.004 C 9.991,55.042 20.137,62 32.014,62 c 11.883,0 22.03,-6.96 26.1,-11.142 l 0,0.005 c 0.035,-0.036 0.066,-0.072 0.099,-0.109"
           id="path3456" />
        <g
           style="fill:#94989b"
           id="g3458">
          <path
             inkscape:connector-curvature="0"
             d="M 37.686,10.763 C 35.924,10.505 34.036,10.362 32,10.362 c -2.036,0 -3.926,0.144 -5.689,0.401 0.736,3.856 2.75,6.583 5.688,11.585 2.98,-5.079 4.964,-7.756 5.687,-11.585"
             id="path3460" />
          <path
             inkscape:connector-curvature="0"
             d="m 46.813,13.785 c -1.908,-1.092 -4.072,-1.944 -6.523,-2.523 0.59,2.29 1.857,3.921 3.627,6.935 1.237,-2.111 2.216,-2.663 2.896,-4.412"
             id="path3462" />
          <path
             inkscape:connector-curvature="0"
             d="m 23.709,11.263 c -2.451,0.579 -4.615,1.431 -6.521,2.522 0.686,1.765 1.666,2.323 2.891,4.411 1.794,-3.057 3.048,-4.664 3.63,-6.933"
             id="path3464" />
        </g>
        <g
           style="fill:#4c5359"
           id="g3466">
          <path
             inkscape:connector-curvature="0"
             d="M 36.04,38.767 C 35.229,37.822 32.741,37.749 32,37.749 c -0.742,0 -3.232,0.072 -4.04,1.018 -0.576,0.674 -0.131,2.344 1.406,3.785 0.969,0.91 1.895,1.197 2.637,1.197 0.744,0 1.67,-0.287 2.639,-1.197 1.535,-1.442 1.982,-3.112 1.404,-3.785"
             id="path3468" />
          <path
             inkscape:connector-curvature="0"
             d="m 43.744,45.861 c 0,4.74 -3.9,10.275 -11.744,10.275 -7.844,0 -11.742,-5.535 -11.742,-10.275 0,0 3.898,0 11.742,0 7.844,0 11.744,0 11.744,0"
             id="path3470" />
        </g>
        <path
           style="fill:#ff717f"
           inkscape:connector-curvature="0"
           d="m 32,51.38 c -4.539,0 -5.834,3.345 -5.834,3.345 0.688,1.49 10.98,1.489 11.666,0 0,0 -1.295,-3.345 -5.832,-3.345"
           id="path3472" />
        <path
           style="fill:#4c5359"
           inkscape:connector-curvature="0"
           d="m 32,56.87 c -8.104,0 -12.477,-5.671 -12.477,-11.01 l 0,-0.733 24.953,0 0,0.733 C 44.477,51.198 40.104,56.87 32,56.87 M 21.023,46.595 c 0.385,4.396 4.205,8.808 10.977,8.808 6.773,0 10.592,-4.412 10.977,-8.808 l -21.954,0"
           id="path3474" />
        <path
           style="fill:#ffffff"
           inkscape:connector-curvature="0"
           d="m 24.299,30.84 c 0,0 -0.484,-4.569 -4.508,-6.03 -4.539,-1.651 -7.637,2.386 -8.477,4.694 -1.24,3.407 0.316,7.133 0.777,7.992 0.307,0.566 3.66,3.241 11.221,0.709 10e-4,0 1.881,-3.789 0.987,-7.361"
           id="path3476" />
        <path
           style="fill:#b2b6b8"
           inkscape:connector-curvature="0"
           d="m 24.299,30.84 c -0.404,-1.559 -1.133,-3.039 -2.254,-4.094 -0.547,-0.535 -1.18,-0.962 -1.869,-1.245 -0.346,-0.146 -0.695,-0.255 -1.074,-0.347 -0.338,-0.083 -0.719,-0.125 -1.076,-0.139 -1.451,-0.041 -2.832,0.578 -3.896,1.6 -1.061,1.01 -1.938,2.329 -2.289,3.713 -0.383,1.406 -0.313,2.951 0.021,4.435 0.16,0.743 0.391,1.487 0.688,2.173 l 0.113,0.243 c -0.031,-0.054 0.014,0.022 0.018,0.026 0.002,0 0,-0.005 -0.002,-0.006 l 0.055,0.063 c 0.098,0.103 0.23,0.209 0.369,0.312 0.283,0.203 0.602,0.384 0.941,0.532 1.365,0.595 2.949,0.792 4.518,0.751 1.586,-0.006 3.168,-0.31 4.752,-0.655 -1.479,0.668 -3.057,1.128 -4.691,1.388 -1.635,0.219 -3.361,0.197 -5.01,-0.396 C 13.201,39.047 12.799,38.86 12.406,38.62 12.211,38.496 12.021,38.358 11.83,38.179 11.781,38.131 11.738,38.088 11.68,38.02 l -0.098,-0.124 -0.063,-0.102 -0.156,-0.299 c -0.379,-0.78 -0.662,-1.574 -0.879,-2.4 -0.416,-1.645 -0.529,-3.423 -0.09,-5.15 0.49,-1.739 1.49,-3.206 2.791,-4.381 1.305,-1.15 3.121,-1.924 4.922,-1.71 0.445,0.051 0.867,0.126 1.307,0.269 0.396,0.126 0.811,0.285 1.189,0.498 0.768,0.412 1.447,0.973 1.984,1.634 1.048,1.342 1.638,2.963 1.714,4.585"
           id="path3478" />
        <path
           style="fill:#ffffff"
           inkscape:connector-curvature="0"
           d="m 39.699,30.84 c 0,0 0.484,-4.568 4.508,-6.03 4.539,-1.651 7.637,2.387 8.477,4.694 1.24,3.407 -0.316,7.133 -0.777,7.992 -0.307,0.566 -3.66,3.241 -11.221,0.709 0,0 -1.881,-3.789 -0.987,-7.361"
           id="path3480" />
        <path
           style="fill:#b2b6b8"
           inkscape:connector-curvature="0"
           d="m 39.699,30.84 c 0.076,-1.622 0.666,-3.243 1.715,-4.587 0.537,-0.661 1.219,-1.222 1.984,-1.634 0.379,-0.213 0.793,-0.372 1.191,-0.498 0.438,-0.143 0.859,-0.218 1.307,-0.269 1.799,-0.214 3.615,0.56 4.92,1.71 1.301,1.175 2.301,2.642 2.791,4.382 0.439,1.728 0.326,3.505 -0.088,5.15 -0.219,0.825 -0.502,1.619 -0.881,2.399 l -0.156,0.299 -0.063,0.102 -0.098,0.124 c -0.059,0.068 -0.102,0.111 -0.15,0.159 -0.191,0.18 -0.381,0.317 -0.576,0.441 -0.393,0.24 -0.795,0.427 -1.207,0.574 -1.65,0.593 -3.377,0.614 -5.01,0.396 -1.635,-0.26 -3.213,-0.72 -4.691,-1.388 1.584,0.346 3.166,0.649 4.752,0.655 1.568,0.041 3.152,-0.156 4.518,-0.751 0.34,-0.148 0.658,-0.329 0.941,-0.532 0.139,-0.103 0.271,-0.209 0.369,-0.312 l 0.055,-0.063 c -0.002,10e-4 -0.004,0.006 -0.002,0.007 0.004,-0.005 0.049,-0.081 0.018,-0.027 l 0.113,-0.243 c 0.297,-0.686 0.527,-1.43 0.688,-2.173 0.334,-1.483 0.404,-3.03 0.021,-4.435 -0.352,-1.384 -1.229,-2.705 -2.289,-3.713 -1.064,-1.021 -2.445,-1.641 -3.896,-1.6 -0.357,0.014 -0.738,0.056 -1.076,0.139 -0.377,0.092 -0.729,0.2 -1.072,0.347 -0.691,0.283 -1.324,0.71 -1.871,1.245 -1.122,1.058 -1.85,2.537 -2.255,4.096"
           id="path3482" />
        <g
           style="fill:#4c5359"
           id="g3484">
          <path
             inkscape:connector-curvature="0"
             id="ellipse3486"
             d="M 48,32.5 A 4,4.5 0 0 1 44,37 4,4.5 0 0 1 40,32.5 4,4.5 0 0 1 44,28 4,4.5 0 0 1 48,32.5 Z" />
          <path
             inkscape:connector-curvature="0"
             id="ellipse3488"
             d="M 24,32.5 A 4,4.5 0 0 1 20,37 4,4.5 0 0 1 16,32.5 4,4.5 0 0 1 20,28 4,4.5 0 0 1 24,32.5 Z" />
        </g>
      </g>
      <text
         sodipodi:linespacing="125%"
         id="text3523"
         y="326.64789"
         x="217.73096"
         style="font-style:normal;font-variant:normal;font-weight:normal;font-stretch:normal;font-size:10px;line-height:125%;font-family:'Droid Sans';-inkscape-font-specification:'Droid Sans';letter-spacing:0px;word-spacing:0px;fill:#000000;fill-opacity:1;stroke:none;stroke-width:1px;stroke-linecap:butt;stroke-linejoin:miter;stroke-opacity:1"
         xml:space="preserve"><tspan
           style="font-style:normal;font-variant:normal;font-weight:900;font-stretch:normal;font-size:27.5px;font-family:'Panefresco 999wt';-inkscape-font-specification:'Panefresco 999wt Heavy'"
           y="326.64789"
           x="217.73096"
           id="tspan3525"
           sodipodi:role="line">This page intentionally cats</tspan></text>
    </g>
    <use
       x="0"
       y="0"
       xlink:href="#g3527"
       id="use3555"
       transform="translate(0,296.42858)"
       width="100%"
       height="100%" />
    <use
       x="0"
       y="0"
       xlink:href="#g3527"
       id="use3559"
       transform="translate(0,592.85714)"
       width="100%"
       height="100%" />
  </g>
</svg>
